<svg width="50" height="67" viewBox="0 0 50 67" fill="none" xmlns="http://www.w3.org/2000/svg">
<path d="M24.2318 0.0115882C10.5482 0.423798 0 12.4211 0 26.1784V60.7151C0 62.5812 2.24349 63.5142 3.55599 62.1951L6.80078 59.7703C7.66797 59.1225 8.88411 59.2482 9.60156 60.0595L15.194 66.3866C16.0078 67.2045 17.3268 67.2045 18.1406 66.3866L23.4427 60.3866C24.2721 59.4484 25.7292 59.4484 26.5573 60.3866L31.8594 66.3866C32.6732 67.2045 33.9922 67.2045 34.806 66.3866L40.3984 60.0595C41.1159 59.2482 42.332 59.1212 43.1992 59.7703L46.444 62.1951C47.7565 63.5142 50 62.5799 50 60.7151V25.125C50 10.9921 38.3893 -0.415017 24.2318 0.0115882ZM16.6667 29.3125C14.3659 29.3125 12.5 27.4373 12.5 25.125C12.5 22.8127 14.3659 20.9375 16.6667 20.9375C18.9674 20.9375 20.8333 22.8127 20.8333 25.125C20.8333 27.4373 18.9674 29.3125 16.6667 29.3125ZM33.3333 29.3125C31.0326 29.3125 29.1667 27.4373 29.1667 25.125C29.1667 22.8127 31.0326 20.9375 33.3333 20.9375C35.6341 20.9375 37.5 22.8127 37.5 25.125C37.5 27.4373 35.6341 29.3125 33.3333 29.3125Z" fill="black"/>
</svg>
